<?xml version="1.0" standalone="no"?>
<!DOCTYPE svg PUBLIC "-//W3C//DTD SVG 20010904//EN"
 "http://www.w3.org/TR/2001/REC-SVG-20010904/DTD/svg10.dtd">
<svg version="1.0" xmlns="http://www.w3.org/2000/svg"
 width="1334.000000pt" height="1335.000000pt" viewBox="0 0 1334.000000 1335.000000"
 preserveAspectRatio="xMidYMid meet">

<g transform="translate(0.000000,1335.000000) scale(0.100000,-0.100000)"
fill="#000000" stroke="none">
<path d="M6285 12953 c-1855 -122 -3530 -1036 -4642 -2533 -605 -815 -1011
-1801 -1158 -2811 -49 -344 -59 -496 -59 -914 0 -417 9 -561 59 -912 289
-2009 1565 -3777 3385 -4689 729 -365 1428 -562 2285 -646 204 -20 877 -17
1095 5 1327 134 2472 618 3489 1474 168 141 577 554 722 728 745 896 1203
1891 1393 3030 88 523 103 1175 41 1730 -224 1980 -1395 3748 -3140 4740 -182
104 -559 285 -755 363 -606 241 -1233 384 -1895 432 -126 9 -696 11 -820 3z
m880 -233 c638 -57 1257 -205 1810 -435 1475 -611 2658 -1791 3270 -3260 738
-1772 591 -3799 -393 -5435 -676 -1125 -1698 -2002 -2905 -2494 -1304 -532
-2789 -586 -4132 -149 -922 300 -1775 831 -2450 1524 -1294 1330 -1902 3140
-1674 4979 204 1639 1073 3124 2409 4112 743 549 1607 922 2511 1083 250 44
446 66 789 89 102 7 644 -3 765 -14z"/>
<path d="M6776 12528 c-7 -23 -38 -640 -32 -645 2 -3 58 -7 123 -10 151 -7
205 8 273 77 84 83 120 238 86 370 -29 114 -91 176 -203 205 -72 19 -242 20
-247 3z m265 -88 c80 -41 113 -119 107 -249 -5 -107 -34 -172 -97 -216 -40
-28 -49 -30 -131 -30 -49 0 -90 2 -93 5 -2 3 1 104 9 225 7 121 13 237 13 259
l1 39 76 -7 c44 -4 94 -16 115 -26z"/>
<path d="M5241 12351 c-16 -28 -14 -46 7 -64 25 -23 55 -21 77 3 15 16 17 26
9 48 -8 22 -16 28 -46 30 -28 2 -39 -1 -47 -17z"/>
<path d="M6105 12325 c-52 -18 -101 -72 -116 -127 -15 -57 -6 -175 18 -230 28
-61 81 -105 140 -114 58 -9 142 7 189 36 34 21 34 22 18 49 l-16 27 -46 -23
c-108 -55 -208 -7 -224 107 l-3 25 125 12 c69 6 135 12 148 12 20 1 22 6 22
50 0 152 -109 227 -255 176z m149 -86 c15 -18 26 -43 26 -60 0 -25 -4 -29 -27
-29 -16 0 -65 -3 -110 -7 -81 -6 -83 -5 -83 16 0 62 55 110 127 111 34 0 46
-5 67 -31z"/>
<path d="M7896 12302 c-2 -4 -7 -24 -11 -45 -7 -37 -8 -37 -46 -31 -31 5 -39
3 -39 -9 0 -8 -3 -22 -6 -31 -5 -12 2 -18 25 -22 17 -4 33 -9 35 -13 2 -3 -11
-71 -30 -151 -18 -80 -34 -162 -34 -183 0 -67 58 -103 155 -95 37 3 40 6 43
35 3 31 3 32 -32 26 -44 -7 -86 17 -86 50 0 12 14 84 32 160 l33 139 30 -5
c16 -3 44 -9 61 -12 28 -6 32 -4 38 19 9 37 2 44 -48 51 -65 10 -67 13 -52 73
l14 52 -38 0 c-21 0 -41 -3 -44 -8z"/>
<path d="M5850 12293 c-14 -3 -28 -8 -33 -12 -9 -9 -67 -295 -67 -335 0 -26
-6 -19 -48 50 -147 240 -146 239 -183 236 -19 -2 -37 -7 -42 -11 -4 -4 54
-102 128 -217 137 -211 168 -243 180 -192 20 85 105 473 105 480 0 4 -3 7 -7
7 -5 -1 -19 -4 -33 -6z"/>
<path d="M7427 12281 c-47 -10 -50 -13 -42 -49 6 -29 7 -30 43 -20 51 14 141
4 163 -19 19 -19 23 -37 21 -90 l-2 -32 -97 6 c-147 8 -199 -22 -210 -120 -6
-52 25 -103 77 -130 45 -23 128 -17 169 12 l29 21 6 -35 c6 -28 11 -35 30 -35
22 0 25 5 31 63 4 34 16 104 26 156 33 165 24 217 -45 250 -47 23 -144 33
-199 22z m127 -268 c38 -6 38 -6 33 -46 -8 -56 -35 -79 -99 -85 -67 -5 -101
17 -101 68 0 61 55 82 167 63z"/>
<path d="M4956 12187 c-28 -22 -28 -25 -16 -61 13 -41 5 -56 -31 -56 -24 0
-28 -9 -17 -42 9 -25 14 -29 37 -23 14 4 30 7 34 8 5 1 28 -62 52 -140 46
-150 64 -191 89 -212 25 -21 109 -9 156 23 37 24 39 29 29 49 -7 12 -13 24
-15 26 -2 2 -23 -7 -48 -18 -69 -34 -78 -24 -126 127 -56 178 -56 171 10 191
49 15 55 20 52 41 -6 39 -17 44 -68 26 -26 -9 -53 -16 -59 -16 -6 0 -17 23
-24 50 -7 28 -16 50 -19 50 -4 0 -20 -10 -36 -23z"/>
<path d="M5297 12183 c-10 -3 -17 -10 -14 -16 2 -7 28 -110 58 -230 l54 -218
30 7 c16 3 33 9 37 13 4 3 -18 106 -49 229 -60 239 -55 231 -116 215z"/>
<path d="M8187 12103 c-4 -3 -7 -19 -7 -35 0 -28 1 -28 63 -28 76 0 144 -28
152 -62 8 -30 -19 -104 -36 -100 -7 2 -37 10 -68 18 -145 37 -234 -9 -234
-122 0 -26 8 -52 21 -71 39 -56 144 -80 206 -48 37 20 36 20 36 -19 0 -31 13
-46 40 -46 5 0 12 17 16 38 4 20 24 87 44 147 58 168 63 191 50 230 -14 42
-48 68 -119 89 -55 16 -152 22 -164 9z m126 -275 c34 -10 38 -14 32 -37 -20
-80 -93 -113 -165 -76 -52 27 -53 105 -3 124 29 11 73 7 136 -11z"/>
<path d="M4712 12015 c-101 -31 -160 -114 -148 -211 13 -109 77 -223 147 -259
46 -24 109 -19 178 16 34 17 69 42 78 56 15 23 15 26 -5 45 l-21 21 -31 -31
c-88 -89 -196 -48 -249 93 -25 67 -26 106 -5 146 18 36 83 68 137 69 36 0 37
1 37 35 0 34 -1 35 -37 34 -21 0 -57 -6 -81 -14z"/>
<path d="M9034 11960 c-131 -41 -254 -229 -254 -388 0 -147 135 -272 293 -272
l53 0 28 58 c16 31 44 90 62 130 l34 72 -97 45 c-53 25 -97 45 -99 45 -2 0 -8
-9 -13 -19 -9 -16 -2 -24 54 -61 l64 -42 -39 -79 c-46 -90 -54 -94 -135 -55
-65 30 -95 64 -110 124 -33 124 64 318 179 362 68 25 166 2 235 -56 l34 -28
24 28 25 29 -29 23 c-15 13 -56 38 -90 55 -68 34 -162 46 -219 29z"/>
<path d="M4265 11818 c-42 -15 -125 -70 -154 -102 -24 -25 -24 -26 -6 -46 24
-27 28 -26 72 15 21 19 57 42 81 51 55 22 84 10 112 -45 l20 -40 -62 -33 c-80
-42 -135 -97 -143 -142 -9 -46 19 -103 65 -134 67 -45 176 -6 217 77 l20 40
21 -21 c18 -19 25 -20 47 -10 l26 12 -22 36 c-12 19 -45 86 -73 147 -69 150
-85 174 -122 192 -37 17 -57 18 -99 3z m169 -266 c16 -35 16 -42 2 -75 -27
-67 -115 -98 -156 -57 -24 24 -25 58 -2 87 15 19 116 82 133 83 3 0 14 -17 23
-38z"/>
<path d="M3954 11666 c-39 -17 -74 -61 -74 -94 l0 -25 -22 21 c-22 19 -40 18
-67 -4 -4 -4 207 -373 224 -392 10 -12 18 -11 44 3 l32 16 -22 37 c-100 170
-149 263 -149 283 0 34 27 69 65 85 32 13 33 15 22 49 -12 39 -11 39 -53 21z"/>
<path d="M9345 11458 c-50 -84 -102 -174 -118 -200 l-27 -47 30 -16 c17 -9 35
-13 39 -10 5 3 46 67 90 143 99 170 128 189 204 138 l35 -24 21 22 c28 30 27
37 -12 64 -35 23 -86 29 -118 12 -22 -12 -23 -11 -9 24 8 21 6 27 -10 36 -10
5 -22 10 -27 10 -5 0 -49 -68 -98 -152z"/>
<path d="M3551 11413 c-30 -15 -68 -45 -84 -66 -65 -79 -42 -207 54 -312 85
-93 170 -108 266 -49 47 29 113 104 113 128 0 18 -53 42 -58 26 -8 -22 -65
-81 -93 -96 -58 -30 -138 -6 -176 53 -14 21 -10 24 106 102 67 45 121 85 121
89 0 19 -60 101 -89 121 -51 36 -97 37 -160 4z m128 -79 c17 -14 31 -29 31
-34 0 -7 -173 -130 -183 -130 -3 0 -10 13 -17 30 -23 56 2 114 65 148 33 19
72 13 104 -14z"/>
<path d="M9689 11370 c-43 -23 -97 -81 -134 -144 -39 -67 -45 -156 -13 -210
47 -79 139 -119 232 -102 75 14 186 153 202 254 23 144 -157 271 -287 202z
m180 -96 c31 -33 33 -40 29 -86 -4 -36 -16 -64 -44 -106 -74 -108 -155 -133
-220 -68 -28 28 -34 41 -34 78 1 73 56 167 125 210 46 29 101 19 144 -28z"/>
<path d="M3091 11191 l-22 -31 27 -36 27 -35 -28 -23 -28 -23 19 -26 c23 -32
26 -32 49 -7 10 11 22 20 26 20 5 0 49 -51 99 -114 107 -136 140 -166 182
-166 38 0 88 36 118 85 22 35 22 37 4 50 -27 20 -31 19 -65 -20 -51 -58 -59
-54 -193 115 -42 52 -76 98 -76 101 0 3 20 20 45 39 25 19 45 37 45 41 0 4 -8
17 -18 30 l-19 22 -49 -37 -49 -38 -36 42 -36 42 -22 -31z"/>
<path d="M10050 11005 c-117 -140 -139 -175 -140 -224 -1 -79 90 -156 178
-149 l49 3 -14 -33 c-11 -26 -11 -37 -2 -48 13 -16 39 -19 39 -4 0 5 63 85
140 177 77 92 140 170 140 173 0 4 -13 16 -28 27 l-29 21 -97 -116 c-54 -65
-108 -122 -120 -129 -11 -7 -43 -12 -69 -13 -41 0 -53 5 -78 29 -52 53 -42 79
100 246 l101 119 -22 23 c-12 13 -26 23 -32 23 -6 0 -58 -57 -116 -125z"/>
<path d="M6629 11063 c-20 -10 -846 -486 -1834 -1058 -1934 -1119 -1833 -1056
-1852 -1150 -4 -22 -6 -981 -3 -2132 l5 -2092 21 -28 c52 -71 252 -197 651
-411 132 -72 866 -491 1630 -933 1217 -705 1394 -804 1435 -807 46 -4 73 12
1875 1053 1006 581 1838 1068 1850 1083 49 58 36 147 -28 194 -19 14 -188 112
-376 218 l-343 192 -2 1551 -3 1552 -24 52 c-13 29 -40 68 -60 85 -20 18 -594
356 -1277 750 -916 530 -1253 720 -1290 728 -112 24 -239 -38 -297 -145 l-22
-40 -3 -3038 -2 -3038 21 -49 c30 -70 103 -135 175 -156 78 -22 140 -14 221
31 202 111 2442 1411 2460 1427 l22 21 220 -124 c169 -95 218 -126 208 -135
-13 -12 -3295 -1910 -3312 -1916 -6 -2 -793 449 -1748 1001 l-1737 1005 2
2010 3 2010 1735 1003 c954 552 1740 1001 1747 999 7 -3 807 -465 1779 -1027
971 -561 1780 -1025 1797 -1030 44 -12 89 5 126 46 52 59 51 134 -2 183 -12
11 -841 494 -1842 1072 -1245 720 -1830 1054 -1855 1056 -21 3 -50 -3 -71 -13z
m1767 -3160 c22 -12 54 -36 72 -54 66 -68 63 -3 60 -1180 l-3 -1066 -30 -49
c-19 -30 -49 -60 -79 -79 l-49 -30 -201 0 c-188 0 -204 1 -242 22 -47 25 -91
73 -111 120 -11 26 -13 226 -13 1096 l0 1063 26 52 c29 58 88 106 151 121 21
6 115 9 208 8 152 -2 174 -5 211 -24z"/>
<path d="M2930 10933 c-57 -22 -113 -92 -125 -155 -7 -36 -8 -37 -29 -22 -21
13 -24 12 -41 -6 -18 -20 -18 -21 11 -53 53 -56 278 -302 280 -306 2 -2 17 8
33 22 l31 25 -115 126 c-110 121 -115 128 -115 170 0 75 68 137 128 116 15 -6
81 -67 147 -136 l120 -125 27 28 27 28 -124 131 c-144 152 -191 181 -255 157z"/>
<path d="M10326 10543 l-228 -225 26 -26 26 -26 63 62 c34 34 65 62 68 62 4 0
19 -18 34 -41 90 -129 257 -123 380 13 54 60 75 105 75 161 0 78 -84 167 -157
167 -36 0 -38 2 -22 31 11 22 -3 49 -25 49 -6 -1 -114 -102 -240 -227z m332
52 c40 -44 42 -87 6 -141 -94 -143 -242 -164 -305 -44 l-19 35 83 83 c45 46
96 90 112 98 43 20 85 9 123 -31z"/>
<path d="M2413 10691 l-22 -28 202 -190 c111 -104 218 -204 238 -221 l36 -31
27 28 27 28 -235 222 c-128 121 -238 221 -243 220 -4 0 -18 -13 -30 -28z"/>
<path d="M3895 8442 c-46 -22 -101 -80 -112 -120 -5 -15 -8 -756 -8 -1647 l0
-1620 23 -42 c12 -24 41 -55 64 -70 l41 -28 221 -3 c141 -2 235 1 258 8 50 14
97 56 119 105 18 38 19 110 19 1660 l0 1621 -22 44 c-14 26 -41 57 -66 75
l-44 30 -226 3 c-204 2 -231 0 -267 -16z"/>
<path d="M8540 2214 c-334 -90 -441 -374 -271 -720 93 -187 255 -284 422 -254
91 17 161 46 228 95 105 77 104 64 20 285 -39 104 -77 190 -82 190 -6 0 -72
-23 -149 -52 -142 -53 -154 -63 -125 -101 11 -15 19 -15 107 8 52 14 100 25
106 25 10 0 94 -211 94 -237 0 -20 -57 -61 -115 -82 -75 -28 -174 -28 -232 0
-177 86 -290 410 -203 583 44 87 139 146 272 168 l68 12 0 48 0 48 -42 -1
c-24 0 -68 -7 -98 -15z"/>
<path d="M4724 2165 c-9 -25 -15 -47 -13 -49 2 -1 111 -40 242 -86 130 -46
237 -86 237 -89 0 -3 -17 -15 -38 -27 -39 -21 -640 -452 -678 -486 -21 -19
-50 -95 -40 -105 7 -7 588 -214 591 -211 1 2 9 24 18 50 l15 46 -231 82 c-277
98 -271 95 -233 110 16 6 183 122 371 258 338 243 343 248 358 294 8 27 12 50
8 53 -12 7 -573 205 -582 205 -4 0 -15 -20 -25 -45z"/>
<path d="M5490 1963 c0 -28 -177 -738 -191 -765 -24 -48 -57 -57 -120 -35 -26
10 -49 17 -53 17 -3 0 -15 -18 -26 -40 l-20 -39 23 -15 c12 -9 52 -23 88 -33
55 -14 73 -15 106 -5 49 15 90 53 114 107 22 50 192 763 185 780 -4 10 -106
38 -106 28z"/>
<path d="M7466 1904 c-132 -31 -156 -40 -156 -57 0 -21 179 -910 185 -915 8
-8 223 28 294 50 242 73 353 303 281 584 -43 169 -114 270 -227 326 -60 29
-77 33 -167 35 -80 2 -124 -3 -210 -23z m310 -107 c88 -45 140 -120 175 -254
21 -83 25 -206 9 -265 -18 -62 -71 -130 -129 -165 -53 -32 -100 -46 -196 -58
l-50 -7 -73 367 c-40 202 -71 370 -68 373 4 3 41 14 84 23 101 24 182 19 248
-14z"/>
<path d="M5795 1886 c-13 -38 -76 -689 -72 -732 15 -142 123 -228 314 -249 69
-8 169 13 215 46 43 31 86 95 103 153 13 45 85 640 85 701 0 21 -5 23 -51 27
-29 1 -53 -1 -55 -7 -2 -5 -20 -151 -39 -324 -37 -334 -43 -367 -75 -419 -35
-58 -74 -74 -165 -70 -94 5 -153 32 -187 86 -34 55 -33 138 6 472 19 168 32
308 28 311 -14 13 -103 17 -107 5z"/>
<path d="M6990 1808 c0 -41 58 -818 66 -875 5 -43 5 -43 47 -43 77 0 75 -32
38 462 -18 244 -34 453 -37 466 -4 20 -10 22 -59 22 l-55 0 0 -32z"/>
<path d="M6684 1362 c-61 -9 -79 -97 -29 -139 51 -45 125 -9 125 61 0 57 -37
87 -96 78z"/>
</g>
</svg>
